<?xml version="1.0" ?><svg id="outine" viewBox="0 0 48 48" xmlns="http://www.w3.org/2000/svg"><title/><path d="M22.025,8.773a15.391,15.391,0,0,1,5.91.378c.014.005.024.016.039.019s.037,0,.056.008a15.252,15.252,0,0,1,5.27,2.6.75.75,0,1,0,.91-1.193A16.747,16.747,0,0,0,29.08,7.94l.683-2.549A2.7,2.7,0,1,0,27.1,2h0a2.693,2.693,0,0,0,1.215,3l-.685,2.557a16.9,16.9,0,0,0-5.8-.266.75.75,0,1,0,.191,1.487ZM28.55,2.389a1.2,1.2,0,0,1,1.468-.847,1.2,1.2,0,0,1-.62,2.314A1.2,1.2,0,0,1,28.55,2.389Z"/><path d="M25.982,39.226a15.388,15.388,0,0,1-5.916-.377c-.015,0-.025-.015-.04-.019a.245.245,0,0,0-.027,0,15.279,15.279,0,0,1-5.239-2.564.75.75,0,1,0-.9,1.2,16.777,16.777,0,0,0,5.061,2.609l-.682,2.546A2.662,2.662,0,0,0,15.686,44.6h0a2.7,2.7,0,0,0,1.908,3.3,2.691,2.691,0,0,0,2.09-4.9l.684-2.551a16.8,16.8,0,0,0,3.6.4,17.062,17.062,0,0,0,2.2-.142.75.75,0,1,0-.192-1.487ZM19.45,45.611a1.2,1.2,0,0,1-1.468.847,1.2,1.2,0,0,1-.847-1.466h0a1.2,1.2,0,0,1,2.315.62Z"/><path d="M8.406,11.1A2.669,2.669,0,0,0,9.7,10.761l1.878,1.878A16.687,16.687,0,0,0,8.449,17.5a.749.749,0,0,0,.4.981.734.734,0,0,0,.288.058.751.751,0,0,0,.693-.461,15.412,15.412,0,0,1,8.3-8.266.75.75,0,1,0-.572-1.387,16.741,16.741,0,0,0-4.923,3.158L10.761,9.7a2.664,2.664,0,0,0-.447-3.2,2.7,2.7,0,1,0-1.908,4.6ZM7.559,7.559A1.2,1.2,0,1,1,9.253,9.253a1.224,1.224,0,0,1-1.694,0A1.2,1.2,0,0,1,7.559,7.559Z"/><path d="M38.307,37.246l-1.885-1.885a16.709,16.709,0,0,0,3.116-4.822.75.75,0,1,0-1.383-.581,15.414,15.414,0,0,1-8.214,8.2.75.75,0,0,0,.58,1.384,16.714,16.714,0,0,0,4.84-3.123L37.239,38.3A2.692,2.692,0,0,0,41.5,41.5a2.7,2.7,0,0,0,0-3.815A2.764,2.764,0,0,0,38.307,37.246Zm2.134,3.2a1.2,1.2,0,0,1-2.045-.847,1.2,1.2,0,0,1,2.045-.847A1.2,1.2,0,0,1,40.441,40.441Z"/><path d="M7.941,29.08a16.757,16.757,0,0,0,2.626,5.1.75.75,0,0,0,1.194-.908,15.269,15.269,0,0,1-2.588-5.259c0-.013,0-.027,0-.04s-.011-.02-.015-.032A15.4,15.4,0,0,1,8.764,22.1a.75.75,0,0,0-1.489-.184,16.889,16.889,0,0,0,.279,5.713L5,28.316A2.7,2.7,0,0,0,2,27.1H2a2.7,2.7,0,0,0-.65,4.943,2.67,2.67,0,0,0,1.344.363,2.719,2.719,0,0,0,.7-.093,2.664,2.664,0,0,0,1.989-2.549Zm-4.2,1.227a1.2,1.2,0,1,1,.12-.91h0A1.189,1.189,0,0,1,3.736,30.307Z"/><path d="M47.908,17.594a2.7,2.7,0,0,0-3.3-1.908h0a2.665,2.665,0,0,0-1.988,2.549l-2.557.685a16.743,16.743,0,0,0-2.593-5.059.75.75,0,1,0-1.2.9,15.271,15.271,0,0,1,2.559,5.222c0,.013,0,.026,0,.039a.221.221,0,0,0,.012.027,15.4,15.4,0,0,1,.405,5.758.75.75,0,0,0,.656.833c.03,0,.06.005.089.005a.75.75,0,0,0,.744-.662,16.9,16.9,0,0,0-.29-5.617L43,19.685a2.693,2.693,0,0,0,4.908-2.091Zm-2.3,1.856a1.2,1.2,0,0,1-1.468-.847h0a1.2,1.2,0,0,1,.847-1.467h0a1.2,1.2,0,0,1,.62,2.315Z"/><path d="M33.995,12.944a.75.75,0,1,0,1.061,1.061L37.7,11.361a2.207,2.207,0,1,0-1.085-1.036Zm4.084-4.092a.7.7,0,1,1,0,.99A.7.7,0,0,1,38.079,8.852Z"/><path d="M14.02,35.041a.75.75,0,1,0-1.061-1.061l-2.644,2.644a2.2,2.2,0,0,0-2.43.458h0a2.2,2.2,0,1,0,3.516.577ZM9.936,39.133a.7.7,0,1,1,0-.99A.7.7,0,0,1,9.936,39.133Z"/><path d="M18.475,6.244l.958,3.575a.75.75,0,0,0,.724.556.765.765,0,0,0,.194-.025.752.752,0,0,0,.531-.919l-.968-3.612a2.2,2.2,0,0,0,.818-2.333h0a2.2,2.2,0,1,0-2.257,2.759Zm-.05-2.865a.709.709,0,0,1,.181-.024.7.7,0,1,1-.181.024Z"/><path d="M30.508,42.025a2.179,2.179,0,0,0-.968-.282l-.958-3.576a.751.751,0,1,0-1.45.388l.967,3.609a2.195,2.195,0,0,0-.817,2.336h0A2.2,2.2,0,0,0,29.4,46.131a2.249,2.249,0,0,0,.573-.075,2.2,2.2,0,0,0,.531-4.031Zm-.494,2.256a.7.7,0,1,1-.787-1.027.7.7,0,0,1,.856.5A.7.7,0,0,1,30.014,44.281Z"/><path d="M3.471,20.826a2.2,2.2,0,0,0,2.4-.915l3.57.957a.767.767,0,0,0,.2.025.75.75,0,0,0,.193-1.475l-3.611-.967A2.2,2.2,0,0,0,4.61,16.575h0a2.2,2.2,0,1,0-1.139,4.251ZM3.364,18.52a.7.7,0,1,1,.5.857A.7.7,0,0,1,3.364,18.52Z"/><path d="M44.543,27.16a2.168,2.168,0,0,0-2.4.916l-3.577-.958a.75.75,0,1,0-.388,1.449l3.612.968A2.2,2.2,0,0,0,43.4,31.41h0a2.2,2.2,0,0,0,1.138-4.25Zm.107,2.306a.7.7,0,1,1-.495-.857.7.7,0,0,1,.495.857Z"/><path d="M11.017,24.806a3.12,3.12,0,1,0,3.119-3.12A3.123,3.123,0,0,0,11.017,24.806Zm4.739,0a1.62,1.62,0,1,1-1.62-1.62A1.622,1.622,0,0,1,15.756,24.806Z"/><path d="M24,37.892a4.842,4.842,0,1,0-4.842-4.842A4.847,4.847,0,0,0,24,37.892Zm0-8.184a3.342,3.342,0,1,1-3.342,3.342A3.346,3.346,0,0,1,24,29.708Z"/><path d="M22.681,10.483A3.523,3.523,0,1,0,26.2,14.006,3.526,3.526,0,0,0,22.681,10.483Zm0,5.545A2.023,2.023,0,1,1,24.7,14.006,2.024,2.024,0,0,1,22.681,16.028Z"/><path d="M33.245,15.751a2.934,2.934,0,1,0,2.933,2.934A2.936,2.936,0,0,0,33.245,15.751Zm0,4.367a1.434,1.434,0,1,1,1.433-1.433A1.435,1.435,0,0,1,33.245,20.118Z"/><path d="M22.734,22.436a2.3,2.3,0,1,0,2.3-2.3A2.3,2.3,0,0,0,22.734,22.436Zm3.1,0a.8.8,0,1,1-.8-.8A.8.8,0,0,1,25.836,22.436Z"/><path d="M33.245,28.208a2.3,2.3,0,1,0,2.3,2.3A2.3,2.3,0,0,0,33.245,28.208Zm0,3.1a.8.8,0,1,1,.8-.8A.8.8,0,0,1,33.245,31.31Z"/></svg>