<!-- Generator: Adobe Illustrator 24.1.1, SVG Export Plug-In  -->
<svg version="1.1" xmlns="http://www.w3.org/2000/svg" xmlns:xlink="http://www.w3.org/1999/xlink" x="0px" y="0px" width="62px"
	 height="62px" viewBox="0 0 62 62" style="enable-background:new 0 0 62 62;" xml:space="preserve">
<defs>
</defs>
<g>
	<rect x="18" y="4" width="2" height="2"/>
	<rect x="26" y="4" width="2" height="2"/>
	<path d="M26.86,27.58C28.17,26.48,29,24.84,29,23v-3c0-3.31-2.69-6-6-6s-6,2.69-6,6v3c0,1.84,0.83,3.48,2.14,4.58
		C13.85,29.23,10,34.18,10,40v2h26v-2C36,34.18,32.15,29.23,26.86,27.58z M19,23v-3c0-2.21,1.79-4,4-4s4,1.79,4,4v3
		c0,2.21-1.79,4-4,4S19,25.21,19,23z M12,40c0-6.06,4.93-11,11-11s11,4.94,11,11H12z"/>
	<rect x="10" y="44" width="26" height="2"/>
	<rect x="34" y="52" width="2" height="2"/>
	<rect x="10" y="52" width="22" height="2"/>
	<rect x="10" y="48" width="12" height="2"/>
	<rect x="24" y="48" width="12" height="2"/>
	<path d="M47.91,42.19l1.05,1.7C54.53,40.46,58,34.26,58,27.71V27h-2v0.71C56,33.57,52.9,39.11,47.91,42.19z"/>
	<rect x="56" y="23" width="2" height="2"/>
	<path d="M45,23v3h-3v6h3v3h6v-3h3v-6h-3v-3H45z M52,28v2h-3v3h-2v-3h-3v-2h3v-3h2v3H52z"/>
	<path d="M48.01,12.91L46,13.77V4H34V2c0-1.1-0.9-2-2-2H14c-1.1,0-2,0.9-2,2v2H0v58h46V47.94l2,1.23l3.06-1.88
		C57.81,43.14,62,35.63,62,27.71v-8.35L48.01,12.91z M44,6v8.63l-2,0.86V8h-8V6H44z M2,60V6h10v2H4v50h38V45.12
		c0.64,0.55,1.3,1.07,2,1.55V60H2z M60,27.71c0,7.24-3.83,14.09-9.99,17.89L48,46.83l-2.01-1.23C39.83,41.8,36,34.94,36,27.71v-7.07
		l2.42-1.12l-0.84-1.82L34,19.36v8.35c0,5.75,2.21,11.27,6,15.46V56H6V10h24V8H14V2h18v8h8v8.52l7.99-3.42L60,20.64V27.71z"/>
</g>
</svg>