<!-- Generator: Adobe Illustrator 23.0.0, SVG Export Plug-In  -->
<svg version="1.1" xmlns="http://www.w3.org/2000/svg" xmlns:xlink="http://www.w3.org/1999/xlink" x="0px" y="0px"
	 width="122.17px" height="61.12px" viewBox="0 0 122.17 61.12" style="enable-background:new 0 0 122.17 61.12;"
	 xml:space="preserve">
<style type="text/css">
	.st0{fill:#FFFFFF;}
</style>
<defs>
</defs>
<g>
	<polygon class="st0" points="105.59,5.53 100.07,0 77.96,22.1 100.07,44.2 105.59,38.67 	"/>
	<polygon class="st0" points="111.12,11.05 111.12,18.87 114.36,22.12 111.12,25.37 111.12,33.15 122.17,22.1 	"/>
	<path class="st0" d="M55.3,5.18c4.17,0,8.25,1.06,11,3.58l-4.58,7.61c-1.38-1.24-3.3-2.29-5.96-2.29c-4.54,0-8.07,3.12-8.07,8.16
		c0,4.95,3.53,8.16,8.07,8.16c2.66,0,4.58-1.05,5.96-2.34l4.58,7.7c-2.75,2.52-6.88,3.53-11,3.53c-10.82,0-17.88-6.97-17.88-16.97
		C37.41,12.48,44.48,5.18,55.3,5.18"/>
	<path class="st0" d="M0,5.73v8.44h3.85v12.84c0,2.57-1.6,3.85-3.85,3.85v8.43c0.06,0,0.12,0,0.18,0c7.66,0,13.66-3.48,13.66-12.01
		V5.73H0z"/>
	<path class="st0" d="M19.3,5.73v8.44h3.85v12.84c0,2.57-1.6,3.85-3.85,3.85v8.43c0.06,0,0.12,0,0.18,0
		c7.66,0,13.66-3.48,13.66-12.01V5.73H19.3z"/>
	<path class="st0" d="M27.92,61.12c-2.49,0-3.18-2.06-3.18-3.07v-5.22c0-0.98,0.64-2.99,3.21-2.99c2.46,0,3.19,1.92,3.19,3.01h-1.52
		c0-1.32-1.15-1.53-1.67-1.53c-0.56,0-1.7,0.22-1.7,1.55v5.19c0,1.35,1.15,1.6,1.7,1.6c0.53,0,1.69-0.25,1.69-1.6v-1.83h-1.91v-1.49
		h3.41v3.33C31.14,59.07,30.43,61.12,27.92,61.12"/>
	<path class="st0" d="M37.82,52.98c0-1.35-1.04-1.56-1.61-1.56h-1.8v3.56h1.83c0.57,0,1.58-0.2,1.58-1.55V52.98z M37.97,60.98
		l-2.11-4.51h-1.46v4.51h-1.5V49.93h3.33c2.57,0,3.08,2.03,3.08,3.01v0.51c0,0.8-0.36,2.31-1.86,2.85l2.22,4.68H37.97z"/>
	<path class="st0" d="M44.24,61.12c-2.57,0-3.21-2-3.21-3.07v-8.12h1.5v8.12c0,1.36,1.16,1.6,1.7,1.6c0.54,0,1.69-0.23,1.69-1.6
		v-8.12h1.5v8.13C47.43,59.13,46.81,61.12,44.24,61.12"/>
	<path class="st0" d="M54.15,52.98c0-1.35-1.01-1.56-1.58-1.56h-1.8v3.86h1.83c0.57,0,1.55-0.2,1.55-1.56V52.98z M52.66,56.76h-1.89
		v4.21h-1.5V49.93h3.33c2.56,0,3.05,2.05,3.05,3.02v0.77C55.65,54.73,55.15,56.76,52.66,56.76"/>
	<path class="st0" d="M62.04,52.86c0-1.35-1.16-1.55-1.69-1.55c-0.56,0-1.7,0.2-1.7,1.55v5.19c0,1.36,1.15,1.6,1.7,1.6
		c0.53,0,1.69-0.23,1.69-1.6V52.86z M60.33,61.12c-2.49,0-3.19-2.06-3.19-3.07v-5.22c0-0.98,0.64-2.99,3.21-2.99
		c2.46,0,3.19,2.01,3.19,3.01v5.22C63.54,59.07,62.87,61.12,60.33,61.12"/>
</g>
</svg>
