<!-- Generator: Adobe Illustrator 23.0.0, SVG Export Plug-In  -->
<svg version="1.1" xmlns="http://www.w3.org/2000/svg" xmlns:xlink="http://www.w3.org/1999/xlink" x="0px" y="0px"
	 width="221.62px" height="300.61px" viewBox="0 0 221.62 300.61" style="enable-background:new 0 0 221.62 300.61;"
	 xml:space="preserve">
<style type="text/css">
	.st0{fill:#142360;}
	.st1{fill:#64B097;}
	.st2{fill-rule:evenodd;clip-rule:evenodd;fill:#64B097;}
	.st3{fill-rule:evenodd;clip-rule:evenodd;fill:#A8A8A8;}
	.st4{fill-rule:evenodd;clip-rule:evenodd;fill:#142360;}
	.st5{clip-path:url(#SVGID_2_);fill-rule:evenodd;clip-rule:evenodd;fill:#A8A8A8;}
	.st6{fill-rule:evenodd;clip-rule:evenodd;fill:#FFFFFF;}
	.st7{fill:#E3E3E3;}
	.st8{fill:#A8A8A8;}
	.st9{fill:#213B72;}
	.st10{fill:#152555;}
	.st11{fill:#FFFFFF;}
	.st12{clip-path:url(#SVGID_4_);fill-rule:evenodd;clip-rule:evenodd;fill:#A8A8A8;}
</style>
<defs>
</defs>
<g>
	<path class="st0" d="M57.06,243.17v19.51h-3.07v-19.51h-5.31v-3.04H62.4v3.04H57.06z"/>
	<path class="st0" d="M77.39,262.68l-1.58-6.13h-6.8l-1.61,6.13h-3.16l5.88-22.54h4.43l5.98,22.54H77.39z M72.42,243.33l-2.69,10.18
		h5.28L72.42,243.33z"/>
	<path class="st0" d="M95.97,262.68l-4.3-9.2H88.7v9.2h-3.07v-22.54h6.8c5.25,0,6.29,4.14,6.29,6.13v1.04
		c0,1.64-0.73,4.71-3.79,5.82l4.52,9.55H95.97z M95.66,246.36c0-2.75-2.12-3.19-3.29-3.19H88.7v7.27h3.73
		c1.17,0,3.23-0.41,3.23-3.16V246.36z"/>
	<path class="st0" d="M109.44,262.96c-3.73,0-5.91-2.53-5.91-6.2h3.07c0,2.66,1.68,3.19,2.88,3.19c1.23,0,2.81-0.54,2.81-3v-13.78
		h-6.48v-3.04h9.55v16.63C115.35,260.65,113.2,262.96,109.44,262.96z"/>
	<path class="st0" d="M122.05,262.68v-22.54h12.52v3.04h-9.45v6.13h8.76v3.04h-8.76v7.3h9.45v3.04H122.05z"/>
	<path class="st0" d="M147.15,243.17v19.51h-3.07v-19.51h-5.31v-3.04h13.72v3.04H147.15z"/>
	<path class="st0" d="M167.47,262.68l-1.58-6.13h-6.8l-1.61,6.13h-3.16l5.88-22.54h4.43l5.98,22.54H167.47z M162.51,243.33
		l-2.69,10.18h5.28L162.51,243.33z"/>
	<path class="st1" d="M71.66,300.61v-22.54h3.54l4.55,11.29l4.49-11.29h3.6v22.54h-3.07v-16.16l-3.79,9.45h-2.47l-3.79-9.49v16.19
		H71.66z"/>
	<path class="st1" d="M106.12,300.61l-1.58-6.13h-6.8l-1.61,6.13h-3.16l5.88-22.54h4.43l5.98,22.54H106.12z M101.16,281.26
		l-2.69,10.18h5.28L101.16,281.26z"/>
	<path class="st1" d="M126.41,300.61l-1.58-6.13h-6.8l-1.61,6.13h-3.16l5.88-22.54h4.43l5.98,22.54H126.41z M121.45,281.26
		l-2.69,10.18h5.28L121.45,281.26z"/>
	<path class="st1" d="M145,300.61l-4.3-9.2h-2.97v9.2h-3.07v-22.54h6.8c5.25,0,6.29,4.14,6.29,6.13v1.04c0,1.64-0.73,4.71-3.79,5.82
		l4.52,9.55H145z M144.68,284.3c0-2.75-2.12-3.19-3.29-3.19h-3.67v7.27h3.73c1.17,0,3.23-0.41,3.23-3.16V284.3z"/>
</g>
<g>
	<path class="st2" d="M172.18,170.76c31.88-21.77,48.14-62.03,37.58-101.44C196.39,19.44,145.12-10.15,95.24,3.21
		C54.48,14.13,27.26,50.36,25.96,90.45c5.64-32.91,29.8-61.18,64.17-70.38c47.08-12.62,95.47,15.32,108.08,62.4
		C207.07,115.54,195.92,149.26,172.18,170.76L172.18,170.76z"/>
	<g>
		<path class="st3" d="M146.75,166.82L146.75,166.82h-37.41h-0.56H48.71c0-39.49,14.74-29.47,44.01-46.29l1.16-9.64
			c-5.28-3.57-7.58-7.36-9.28-14.15l0,0c-0.94,0-1.52-1.33-1.52-2.65c0-0.2,0-0.57,0-0.57c-0.37-0.76-0.94-1.89-1.32-3.59
			c-0.58-1.89-2.46-6.22-0.76-8.12c1.31-1.33,2.45,0.19,2.45,0.19C81.19,70.84,78.43,54.7,94.5,55.63
			c18.56,1.07,35.62-9.16,39.97,6.14c1.89,5.87-0.57,20.03-0.57,20.03c0.57-1.13,1.13-1.33,2.08-0.76c1.89,1.52-0.19,7.19-0.76,8.88
			v0.18l-1.87,0.39v2.46c0,0.18,0,1.7-0.58,3.57c-0.18,0.21-0.18,0.21-0.39,0.21c-0.37,1.13-0.55,2.45-0.94,3.59
			c-1.69,3.58-5.09,7.36-11.71,8.87l-2.07,0.56l-0.18,2.28c0.04,2.86-0.39,10.02,3.78,22.1C124.64,143.96,131.83,157,146.75,166.82
			L146.75,166.82z"/>
	</g>
	<path class="st4" d="M48.34,17.88C10.55,43.68-8.71,91.39,3.8,138.09c15.84,59.12,76.6,94.2,135.71,78.35
		c48.31-12.94,80.55-55.87,82.1-103.39c-6.69,39-35.31,72.5-76.04,83.41c-55.79,14.95-113.14-18.15-128.09-73.95
		C6.99,83.33,20.2,43.37,48.34,17.88L48.34,17.88z"/>
	<path class="st0" d="M111.19,33.79c1.11,0.38,1.71,0.76,2.85,1.15c-0.32,6.17-0.64,12.26-0.95,18.34c0.1,0.03,0.2,0.06,0.29,0.09
		c1.29-4.73,2.58-9.46,3.87-14.19c11.22,2.46,19.52,13.58,18.76,25.11c-18.22,0-36.44,0-54.65,0c-1.56-10.41,6.62-21.53,18.67-25.2
		c1.3,4.79,0.96,3.55,2.26,8.34c0.09-0.01,1.83,6.02,1.92,6.01c-0.17-3.44-0.34-6.89-0.51-10.33c-0.12-2.39-0.31-4.77-0.32-7.16
		c0-0.48,0.57-1.14,1.05-1.39c0.75-0.4,1.65-0.52,2.48-0.76C108.17,33.79,109.93,33.79,111.19,33.79z"/>
	<rect x="81.17" y="65.67" class="st0" width="54.88" height="3.26"/>
	<g>
		<defs>
			<rect id="SVGID_1_" x="105.39" y="113.9" width="59.63" height="52.92"/>
		</defs>
		<clipPath id="SVGID_2_">
			<use xlink:href="#SVGID_1_"  style="overflow:visible;"/>
		</clipPath>
		<path class="st5" d="M59.85,166.82L59.85,166.82h39.47h0.59h63.4c0-40.44-15.56-30.18-46.44-47.41v-6.98
			c5.57-3.66,6.77-10.43,8.56-17.39l0,0c1,0,1.6-1.36,1.6-2.72c0-0.21,0-0.59,0-0.59c0.39-0.78,1-1.93,1.39-3.68
			c0.61-1.94,2.6-6.37,0.8-8.31c-1.39-1.37-2.58,0.19-2.58,0.19c2.39-11.42,5.38-26.5-10.98-30.96c0-9.86-38.27-5.43-42.86,10.25
			c-2,6.01,0.6,20.52,0.6,20.52c-0.6-1.16-1.19-1.37-2.19-0.78c-1.99,1.56,0.2,7.36,0.8,9.09v0.19l1.97,0.4v2.52
			c0,0.19,0,1.74,0.61,3.66c0.19,0.21,0.19,0.21,0.41,0.21c0.39,1.15,0.58,2.51,1,3.68c1.78,3.66,5.37,7.53,12.35,9.09l2.19,0.57
			l0.19,2.33c0,0.38,0.41,10.26-3.99,22.63C83.18,143.41,75.6,156.76,59.85,166.82L59.85,166.82z"/>
	</g>
	<path class="st6" d="M170.02,161.49h-49.44c-1.87,0-3.38-1.51-3.38-3.38V88.34c0-1.87,1.51-3.38,3.38-3.38h49.44
		c1.87,0,3.38,1.51,3.38,3.38v69.77C173.41,159.98,171.89,161.49,170.02,161.49z"/>
	<g>
		<rect x="121.65" y="89.27" class="st7" width="47.3" height="66.31"/>
		<rect x="125.61" y="93.12" class="st8" width="39.4" height="16.8"/>
		<rect x="125.76" y="113.19" class="st9" width="39.1" height="3.57"/>
		<rect x="125.76" y="121.44" class="st9" width="39.1" height="3.57"/>
		<rect x="125.76" y="129.55" class="st9" width="39.1" height="3.57"/>
		<rect x="125.76" y="138.84" class="st9" width="39.1" height="9.44"/>
	</g>
	<polygon class="st10" points="103.44,38.18 99.94,39.11 104.57,56.68 	"/>
	<polygon class="st10" points="113.7,38.33 117.58,39.25 112.97,55.19 	"/>
	<g>
		<polygon class="st11" points="117.63,47.69 116.62,46.68 112.61,50.7 116.62,54.72 117.63,53.71 		"/>
		<polygon class="st11" points="118.63,48.69 118.63,50.11 119.22,50.7 118.63,51.29 118.63,52.71 120.64,50.7 		"/>
		<path class="st11" d="M108.6,47.59c0.76,0,1.5,0.19,2,0.65l-0.83,1.38c-0.25-0.23-0.6-0.42-1.08-0.42c-0.83,0-1.47,0.57-1.47,1.48
			c0,0.9,0.64,1.48,1.47,1.48c0.48,0,0.83-0.19,1.08-0.43l0.83,1.4c-0.5,0.46-1.25,0.64-2,0.64c-1.97,0-3.25-1.27-3.25-3.08
			C105.35,48.91,106.63,47.59,108.6,47.59"/>
		<path class="st11" d="M98.54,47.69v1.53h0.7v2.33c0,0.47-0.29,0.7-0.7,0.7v1.53c0.01,0,0.02,0,0.03,0c1.39,0,2.48-0.63,2.48-2.18
			v-3.92H98.54z"/>
		<path class="st11" d="M102.05,47.69v1.53h0.7v2.33c0,0.47-0.29,0.7-0.7,0.7v1.53c0.01,0,0.02,0,0.03,0c1.39,0,2.48-0.63,2.48-2.18
			v-3.92H102.05z"/>
		<g>
			<path class="st11" d="M103.63,57.75c-0.45,0-0.58-0.38-0.58-0.56v-0.95c0-0.18,0.12-0.54,0.58-0.54c0.45,0,0.58,0.35,0.58,0.55
				h-0.28c0-0.24-0.21-0.28-0.31-0.28c-0.1,0-0.31,0.04-0.31,0.28v0.95c0,0.25,0.21,0.29,0.31,0.29c0.1,0,0.31-0.05,0.31-0.29v-0.33
				h-0.35v-0.27h0.62v0.61C104.21,57.38,104.08,57.75,103.63,57.75z"/>
			<path class="st11" d="M105.5,57.73l-0.38-0.82h-0.27v0.82h-0.27v-2.01h0.61c0.47,0,0.56,0.37,0.56,0.55v0.09
				c0,0.15-0.06,0.42-0.34,0.52l0.4,0.85H105.5z M105.48,56.27c0-0.25-0.19-0.29-0.29-0.29h-0.33v0.65h0.33
				c0.1,0,0.29-0.04,0.29-0.28V56.27z"/>
			<path class="st11" d="M106.69,57.75c-0.47,0-0.58-0.36-0.58-0.56v-1.48h0.27v1.48c0,0.25,0.21,0.29,0.31,0.29
				c0.1,0,0.31-0.04,0.31-0.29v-1.48h0.27v1.48C107.27,57.39,107.16,57.75,106.69,57.75z"/>
			<path class="st11" d="M108.26,56.96h-0.34v0.77h-0.27v-2.01h0.61c0.47,0,0.56,0.37,0.56,0.55v0.14
				C108.8,56.59,108.71,56.96,108.26,56.96z M108.53,56.27c0-0.25-0.18-0.29-0.29-0.29h-0.33v0.7h0.33c0.1,0,0.28-0.04,0.28-0.28
				V56.27z"/>
		</g>
		<g>
			<path class="st11" d="M109.51,57.75c-0.45,0-0.58-0.38-0.58-0.56v-0.95c0-0.18,0.12-0.54,0.58-0.54c0.45,0,0.58,0.37,0.58,0.55
				v0.95C110.1,57.38,109.98,57.75,109.51,57.75z M109.82,56.25c0-0.25-0.21-0.28-0.31-0.28c-0.1,0-0.31,0.04-0.31,0.28v0.95
				c0,0.25,0.21,0.29,0.31,0.29c0.1,0,0.31-0.04,0.31-0.29V56.25z"/>
		</g>
	</g>
	<g>
		<g>
			<path class="st11" d="M132.08,100.82V97.6h0.6l0.6,1.45l0.59-1.45h0.62v3.22h-0.58v-2l-0.43,1.09h-0.37l-0.44-1.1v2.01H132.08z"
				/>
			<path class="st11" d="M135.39,100.82V97.6h1.86v0.58h-1.27v0.65h1.18v0.58h-1.18v0.82h1.27v0.58H135.39z"/>
			<path class="st11" d="M140.03,100.08l-0.19,0.74h-0.59l0.85-3.22h0.71l0.85,3.22h-0.59l-0.19-0.74H140.03z M140.46,98.34
				l-0.29,1.16h0.58L140.46,98.34z"/>
			<path class="st11" d="M143.69,100.82L142.92,99v1.82h-0.59V97.6h0.58l0.78,1.86V97.6h0.59v3.22H143.69z"/>
			<path class="st11" d="M146.25,98.19v2.63h-0.59v-2.63h-0.72V97.6h2.02v0.58H146.25z"/>
			<path class="st11" d="M148.21,97.6v3.22h-0.59V97.6H148.21z"/>
			<path class="st11" d="M150.04,100.86c-0.76,0-0.97-0.63-0.97-0.94v-1.43c0-0.3,0.19-0.91,0.97-0.91c0.74,0,0.97,0.67,0.97,1
				h-0.59c0-0.37-0.26-0.42-0.38-0.42c-0.13,0-0.38,0.04-0.38,0.34v1.42c0,0.3,0.26,0.36,0.38,0.36c0.14,0,0.38-0.07,0.38-0.44h0.59
				C151.01,100.24,150.79,100.86,150.04,100.86z"/>
			<path class="st11" d="M152.37,97.6v3.22h-0.59V97.6H152.37z"/>
			<path class="st11" d="M154.29,99.66h-0.43v1.16h-0.59V97.6h1c0.78,0,0.93,0.62,0.93,0.92v0.21
				C155.2,99.04,155.05,99.66,154.29,99.66z M154.62,98.53c0-0.3-0.23-0.34-0.36-0.34h-0.4v0.89h0.41c0.13,0,0.35-0.04,0.35-0.35
				V98.53z"/>
			<path class="st11" d="M156.87,100.86c-0.76,0-0.97-0.63-0.97-0.94v-1.43c0-0.3,0.19-0.91,0.97-0.91c0.74,0,0.97,0.61,0.97,0.92
				v1.43C157.84,100.24,157.63,100.86,156.87,100.86z M157.25,98.5c0-0.3-0.26-0.34-0.38-0.34c-0.13,0-0.38,0.04-0.38,0.34v1.42
				c0,0.3,0.26,0.36,0.38,0.36c0.12,0,0.38-0.05,0.38-0.36V98.5z"/>
			<path class="st11" d="M135.02,105.5l-0.19,0.74h-0.59l0.85-3.22h0.71l0.85,3.22h-0.59l-0.19-0.74H135.02z M135.45,103.76
				l-0.29,1.16h0.58L135.45,103.76z"/>
			<path class="st11" d="M137.33,106.24v-3.22h0.59v2.63h1.27v0.58H137.33z"/>
			<path class="st11" d="M142.7,106.24l-0.57-1.24h-0.28v1.24h-0.59v-3.22h1.01c0.78,0,0.93,0.62,0.93,0.91v0.14
				c0,0.23-0.09,0.65-0.48,0.84l0.63,1.33H142.7z M142.62,103.95c0-0.3-0.23-0.34-0.35-0.34h-0.42v0.81h0.43
				c0.13,0,0.34-0.04,0.34-0.34V103.95z"/>
			<path class="st11" d="M144.62,103.02v3.22h-0.59v-3.22H144.62z"/>
			<path class="st11" d="M145.53,106.24v-3.22h1.86v0.58h-1.27v0.65h1.18v0.58h-1.18v0.82h1.27v0.58H145.53z"/>
			<path class="st11" d="M149,106.28c-0.61,0-1-0.46-1-1.04h0.59c0,0.3,0.17,0.47,0.42,0.47c0.27,0,0.44-0.14,0.44-0.36
				c0-0.18-0.09-0.25-0.22-0.33c-0.24-0.14-0.38-0.19-0.65-0.33c-0.28-0.15-0.5-0.4-0.5-0.81c0-0.51,0.39-0.88,0.94-0.88
				c0.58,0,0.98,0.42,0.98,0.99h-0.59c0-0.27-0.17-0.42-0.39-0.42c-0.2,0-0.36,0.13-0.36,0.31c0,0.13,0.05,0.22,0.18,0.28
				c0.25,0.13,0.53,0.26,0.67,0.33c0.34,0.19,0.52,0.46,0.52,0.85C150.03,105.89,149.57,106.28,149,106.28z"/>
			<path class="st11" d="M151.72,106.28c-0.75,0-0.96-0.62-0.96-0.94v-1.44c0-0.3,0.19-0.91,0.97-0.91c0.75,0,0.97,0.64,0.97,1
				h-0.59c0-0.36-0.26-0.42-0.38-0.42c-0.13,0-0.38,0.04-0.38,0.33v1.44c0,0.3,0.26,0.34,0.38,0.34c0.12,0,0.38-0.04,0.38-0.34
				v-0.43h-0.47v-0.57h1.06v1C152.69,105.66,152.48,106.28,151.72,106.28z"/>
			<path class="st11" d="M154.47,106.28c-0.76,0-0.97-0.63-0.97-0.94v-1.43c0-0.3,0.19-0.91,0.97-0.91c0.74,0,0.97,0.61,0.97,0.92
				v1.43C155.44,105.66,155.24,106.28,154.47,106.28z M154.86,103.92c0-0.3-0.26-0.34-0.38-0.34c-0.13,0-0.38,0.04-0.38,0.34v1.42
				c0,0.3,0.26,0.36,0.38,0.36c0.12,0,0.38-0.05,0.38-0.36V103.92z"/>
		</g>
	</g>
</g>
</svg>