<?xml version="1.0" encoding="utf-8"?>
<!-- Generator: Adobe Illustrator 24.1.1, SVG Export Plug-In . SVG Version: 6.00 Build 0)  -->
<svg version="1.1" id="Capa_1" xmlns="http://www.w3.org/2000/svg" xmlns:xlink="http://www.w3.org/1999/xlink" x="0px" y="0px"
	 viewBox="0 0 64 80" style="enable-background:new 0 0 64 80;" xml:space="preserve">
<g>
	<rect x="19" y="5" width="2" height="2"/>
	<rect x="27" y="5" width="2" height="2"/>
	<path d="M27.9,28.6c1.3-1.1,2.1-2.7,2.1-4.6v-3c0-3.3-2.7-6-6-6s-6,2.7-6,6v3c0,1.8,0.8,3.5,2.1,4.6C14.9,30.2,11,35.2,11,41v2h26
		v-2C37,35.2,33.2,30.2,27.9,28.6z M20,24v-3c0-2.2,1.8-4,4-4s4,1.8,4,4v3c0,2.2-1.8,4-4,4S20,26.2,20,24z M13,41
		c0-6.1,4.9-11,11-11s11,4.9,11,11H13z"/>
	<rect x="11" y="45" width="26" height="2"/>
	<rect x="35" y="53" width="2" height="2"/>
	<rect x="11" y="53" width="22" height="2"/>
	<rect x="11" y="49" width="12" height="2"/>
	<rect x="25" y="49" width="12" height="2"/>
	<path d="M48.9,43.2l1,1.7c5.6-3.4,9-9.6,9-16.2V28h-2v0.7C57,34.6,53.9,40.1,48.9,43.2z"/>
	<rect x="57" y="24" width="2" height="2"/>
	<path d="M46,24v3h-3v6h3v3h6v-3h3v-6h-3v-3H46z M53,29v2h-3v3h-2v-3h-3v-2h3v-3h2v3H53z"/>
	<path d="M49,13.9l-2,0.9V5H35V3c0-1.1-0.9-2-2-2H15c-1.1,0-2,0.9-2,2v2H1v58h46V48.9l2,1.2l3.1-1.9C58.8,44.1,63,36.6,63,28.7v-8.3
		L49,13.9z M45,7v8.6l-2,0.9V9h-8V7H45z M3,61V7h10v2H5v50h38V46.1c0.6,0.6,1.3,1.1,2,1.5V61H3z M61,28.7c0,7.2-3.8,14.1-10,17.9
		l-2,1.2l-2-1.2c-6.2-3.8-10-10.6-10-17.9v-7.1l2.4-1.1l-0.8-1.8L35,20.4v8.3c0,5.7,2.2,11.3,6,15.5V57H7V11h24V9H15V3h18v8h8v8.5
		l8-3.4l12,5.5V28.7z"/>
</g>
</svg>
